<svg width="235" height="238" viewBox="0 0 235 238" fill="none" xmlns="http://www.w3.org/2000/svg">
<path opacity="0.9" d="M118.516 42.4626C138.86 42.4627 157.22 50.9575 170.242 64.5935L146.013 88.823C139.199 81.3788 129.403 76.7097 118.516 76.7097C97.9327 76.7097 81.2471 93.3953 81.2471 113.978C81.2471 134.561 97.9327 151.247 118.516 151.247C128.211 151.247 137.041 147.543 143.67 141.475L167.899 165.705C155.062 177.964 137.668 185.494 118.516 185.494C104.861 185.494 92.1003 181.666 81.2471 175.026V191.538H47V112.971H47.0078C47.5467 73.9388 79.3549 42.4626 118.516 42.4626Z" fill="url(#paint0_linear_150_2807)"/>
<path d="M161.696 88.2266C165.383 91.9132 168.308 96.2899 170.303 101.107L170.665 102.014C172.422 106.569 173.325 111.413 173.325 116.3L173.313 117.276C173.193 122.157 172.173 126.977 170.302 131.493L169.918 132.391C167.939 136.854 165.152 140.916 161.696 144.373L155.286 137.962C157.953 135.295 160.103 132.161 161.63 128.717L161.927 128.024C163.371 124.54 164.157 120.82 164.25 117.054L164.259 116.3C164.259 112.528 163.563 108.791 162.207 105.276L161.927 104.576C160.388 100.859 158.131 97.4816 155.286 94.6367L161.696 88.2266Z" fill="#9A74DF"/>
<path d="M147.036 102.89C148.797 104.651 150.194 106.742 151.147 109.043L151.32 109.476C152.159 111.652 152.591 113.965 152.591 116.3L152.584 116.767C152.527 119.098 152.04 121.4 151.147 123.557L150.963 123.986C150.018 126.118 148.687 128.059 147.036 129.71L140.626 123.3C141.43 122.496 142.089 121.559 142.575 120.533L142.772 120.089C143.207 119.038 143.458 117.921 143.514 116.787L143.525 116.3C143.525 115.163 143.329 114.035 142.947 112.966L142.772 112.511C142.274 111.31 141.545 110.219 140.626 109.3L147.036 102.89Z" fill="#9A74DF"/>
<path d="M175.609 74.3159C181.123 79.8293 185.496 86.3748 188.48 93.5784L188.756 94.2552C191.559 101.265 193 108.746 193 116.3L192.995 117.031C192.902 124.579 191.371 132.044 188.48 139.022L188.197 139.695C185.222 146.634 180.95 152.943 175.609 158.284L169.199 151.874C173.725 147.348 177.344 142.002 179.864 136.123L180.105 135.553C182.554 129.64 183.852 123.316 183.931 116.92L183.934 116.3C183.934 109.9 182.713 103.561 180.338 97.6217L180.105 97.0471C177.576 90.9435 173.871 85.3976 169.199 80.7261L175.609 74.3159Z" fill="#9A74DF"/>
<path opacity="0.9" d="M81.301 115.993C82.3475 135.639 98.6085 151.247 118.516 151.247C130.952 151.247 141.963 145.154 148.733 135.792V178.815C139.554 183.1 129.314 185.494 118.516 185.494C104.86 185.494 92.1004 181.663 81.2469 175.022V115.993H81.301Z" fill="url(#paint1_linear_150_2807)"/>
<defs>
<linearGradient id="paint0_linear_150_2807" x1="41.4601" y1="126.073" x2="190.031" y2="126.073" gradientUnits="userSpaceOnUse">
<stop stop-color="#4EEFF2"/>
<stop offset="0.176842" stop-color="#55AEF9"/>
<stop offset="0.501322" stop-color="#758CFF"/>
<stop offset="1" stop-color="#D77AF3"/>
</linearGradient>
<linearGradient id="paint1_linear_150_2807" x1="74.7458" y1="142.951" x2="135.639" y2="142.951" gradientUnits="userSpaceOnUse">
<stop stop-color="#1C1E49"/>
<stop offset="1" stop-color="#2F327C" stop-opacity="0"/>
</linearGradient>
</defs>
</svg>
